<svg xmlns="http://www.w3.org/2000/svg" viewBox="0 0 646 248" width="646" height="248" role="img" aria-label="The Futsal Collective">
  <title>The Futsal Collective</title>
  <defs>
    <linearGradient id="topGrad" gradientUnits="userSpaceOnUse" x1="28" y1="0" x2="617.5" y2="0">
      <stop offset="0" stop-color="#2E1C8C"/><stop offset="0.34" stop-color="#6A3FB5"/>
      <stop offset="0.67" stop-color="#B30FA0"/><stop offset="1" stop-color="#E62178"/>
    </linearGradient>
    <linearGradient id="botGrad" gradientUnits="userSpaceOnUse" x1="28" y1="0" x2="520.0" y2="0">
      <stop offset="0" stop-color="#008C84"/><stop offset="0.28" stop-color="#57A55B"/>
      <stop offset="0.55" stop-color="#BFC93F"/><stop offset="0.80" stop-color="#F5C400"/><stop offset="1" stop-color="#F5871F"/>
    </linearGradient>
    <linearGradient id="ruleGrad" gradientUnits="userSpaceOnUse" x1="28" y1="0" x2="617.5" y2="0">
      <stop offset="0" stop-color="#6A3FB5"/><stop offset="1" stop-color="#E62178"/>
    </linearGradient>
  </defs>
  <g transform="translate(25.70,98.09)"><path d="M56.20 -69.09 Q57.91 -69.09 59.30 -68.80 Q60.70 -68.50 61.64 -67.14 Q62.59 -65.80 62.59 -62.50 Q62.59 -59.41 61.64 -58.00 Q60.70 -56.59 59.20 -56.30 Q57.70 -56.00 56.00 -56.00 L39.91 -56.00 L39.91 -6.50 Q39.91 -4.59 39.55 -2.89 Q39.20 -1.20 37.64 -0.14 Q36.09 0.91 32.41 0.91 Q28.80 0.91 27.19 -0.14 Q25.59 -1.20 25.30 -2.95 Q25.00 -4.70 25.00 -6.59 L25.00 -56.00 L8.70 -56.00 Q7.09 -56.00 5.59 -56.34 Q4.09 -56.70 3.19 -58.05 Q2.30 -59.41 2.30 -62.59 Q2.30 -65.80 3.19 -67.14 Q4.09 -68.50 5.59 -68.80 Q7.09 -69.09 8.70 -69.09 L56.20 -69.09 Z M119.10 0.91 Q115.39 0.91 113.85 -0.19 Q112.30 -1.30 111.89 -3.09 Q111.50 -4.91 111.50 -6.80 L111.50 -61.41 Q111.50 -63.41 111.89 -65.09 Q112.30 -66.80 113.89 -67.89 Q115.50 -69.00 119.21 -69.00 Q122.89 -69.00 124.44 -67.89 Q126.00 -66.80 126.35 -65.09 Q126.71 -63.41 126.71 -61.30 L126.71 -6.70 Q126.71 -4.80 126.35 -3.05 Q126.00 -1.30 124.39 -0.19 Q122.80 0.91 119.10 0.91 Z M76.71 0.91 Q73.00 0.91 71.39 -0.19 Q69.80 -1.30 69.44 -3.09 Q69.10 -4.91 69.10 -6.80 L69.10 -61.41 Q69.10 -63.41 69.49 -65.09 Q69.89 -66.80 71.44 -67.89 Q73.00 -69.00 76.80 -69.00 Q80.50 -69.00 82.05 -67.89 Q83.60 -66.80 83.94 -65.09 Q84.30 -63.41 84.30 -61.30 L84.30 -6.70 Q84.30 -4.80 83.94 -3.05 Q83.60 -1.30 81.99 -0.19 Q80.39 0.91 76.71 0.91 Z M81.89 -27.70 L81.89 -40.91 L113.10 -40.91 L113.10 -27.70 L81.89 -27.70 Z M143.59 0.91 Q140.00 0.91 138.39 -0.14 Q136.80 -1.20 136.44 -3.00 Q136.09 -4.80 136.09 -6.70 L136.09 -61.41 Q136.09 -65.80 137.80 -67.39 Q139.50 -69.00 143.91 -69.00 L181.70 -69.00 Q183.70 -69.00 185.39 -68.64 Q187.09 -68.30 188.19 -66.69 Q189.30 -65.09 189.30 -61.30 Q189.30 -57.70 188.19 -56.09 Q187.09 -54.50 185.34 -54.14 Q183.59 -53.80 181.59 -53.80 L151.30 -53.80 L151.30 -40.91 L171.91 -40.91 Q173.91 -40.91 175.45 -40.59 Q177.00 -40.30 177.89 -38.89 Q178.80 -37.50 178.80 -34.20 Q178.80 -31.09 177.89 -29.69 Q177.00 -28.30 175.39 -28.00 Q173.80 -27.70 171.70 -27.70 L151.30 -27.70 L151.30 -14.30 L181.70 -14.30 Q183.70 -14.30 185.39 -13.89 Q187.09 -13.50 188.19 -11.95 Q189.30 -10.41 189.30 -6.59 Q189.30 -3.00 188.19 -1.39 Q187.09 0.20 185.34 0.55 Q183.59 0.91 181.59 0.91 L143.59 0.91 Z M228.69 0.91 Q225.10 0.91 223.49 -0.14 Q221.90 -1.20 221.54 -3.00 Q221.19 -4.80 221.19 -6.70 L221.19 -61.41 Q221.19 -65.80 222.90 -67.39 Q224.60 -69.00 229.01 -69.00 L266.80 -69.00 Q268.80 -69.00 270.49 -68.64 Q272.19 -68.30 273.24 -66.69 Q274.30 -65.09 274.30 -61.30 Q274.30 -57.70 273.19 -56.09 Q272.10 -54.50 270.35 -54.14 Q268.60 -53.80 266.60 -53.80 L236.40 -53.80 L236.40 -40.91 L256.90 -40.91 Q258.90 -40.91 260.44 -40.59 Q262.01 -40.30 262.90 -38.89 Q263.80 -37.50 263.80 -34.20 Q263.80 -31.00 262.90 -29.64 Q262.01 -28.30 260.44 -28.00 Q258.90 -27.70 256.80 -27.70 L236.40 -27.70 L236.40 -6.59 Q236.40 -4.70 235.99 -2.95 Q235.60 -1.20 234.05 -0.14 Q232.51 0.91 228.69 0.91 Z M312.20 1.80 Q304.91 1.80 299.34 -1.05 Q293.80 -3.91 289.94 -8.66 Q286.09 -13.41 284.19 -19.34 Q282.30 -25.30 282.30 -31.50 L282.30 -61.41 Q282.30 -63.41 282.64 -65.16 Q283.00 -66.91 284.59 -68.00 Q286.20 -69.09 289.91 -69.09 Q293.70 -69.09 295.30 -68.00 Q296.91 -66.91 297.25 -65.16 Q297.59 -63.41 297.59 -61.30 L297.59 -31.50 Q297.59 -27.09 299.05 -23.00 Q300.50 -18.91 303.80 -16.20 Q307.09 -13.50 312.50 -13.50 Q317.09 -13.50 320.39 -15.75 Q323.70 -18.00 325.50 -22.05 Q327.30 -26.09 327.30 -31.59 L327.30 -62.00 Q327.30 -63.80 327.69 -65.39 Q328.09 -67.00 329.69 -68.05 Q331.30 -69.09 335.00 -69.09 Q338.70 -69.09 340.25 -67.94 Q341.80 -66.80 342.14 -65.09 Q342.50 -63.41 342.50 -61.30 L342.50 -31.30 Q342.50 -25.00 340.55 -19.09 Q338.59 -13.20 334.75 -8.50 Q330.91 -3.80 325.25 -1.00 Q319.59 1.80 312.20 1.80 Z M403.00 -69.09 Q404.71 -69.09 406.10 -68.80 Q407.50 -68.50 408.44 -67.14 Q409.39 -65.80 409.39 -62.50 Q409.39 -59.41 408.44 -58.00 Q407.50 -56.59 406.00 -56.30 Q404.50 -56.00 402.80 -56.00 L386.71 -56.00 L386.71 -6.50 Q386.71 -4.59 386.35 -2.89 Q386.00 -1.20 384.44 -0.14 Q382.89 0.91 379.21 0.91 Q375.60 0.91 373.99 -0.14 Q372.39 -1.20 372.10 -2.95 Q371.80 -4.70 371.80 -6.59 L371.80 -56.00 L355.50 -56.00 Q353.89 -56.00 352.39 -56.34 Q350.89 -56.70 349.99 -58.05 Q349.10 -59.41 349.10 -62.59 Q349.10 -65.80 349.99 -67.14 Q350.89 -68.50 352.39 -68.80 Q353.89 -69.09 355.50 -69.09 L403.00 -69.09 Z M438.69 1.91 Q433.40 1.91 429.44 0.59 Q425.51 -0.70 422.76 -2.55 Q420.01 -4.41 418.40 -6.20 Q416.80 -8.00 416.19 -8.91 Q414.51 -11.09 414.10 -12.75 Q413.69 -14.41 414.54 -16.09 Q415.40 -17.80 417.51 -19.80 Q419.60 -21.59 421.44 -21.75 Q423.30 -21.91 425.10 -20.80 Q426.90 -19.70 428.60 -17.70 Q431.01 -14.80 433.35 -13.64 Q435.69 -12.50 438.30 -12.50 Q441.60 -12.50 443.90 -13.30 Q446.19 -14.09 447.40 -15.84 Q448.60 -17.59 448.60 -20.30 Q448.60 -22.50 446.94 -23.84 Q445.30 -25.20 442.55 -26.20 Q439.80 -27.20 436.44 -28.14 Q433.10 -29.09 429.80 -30.41 Q427.51 -31.20 425.40 -32.39 Q423.30 -33.59 421.40 -35.09 Q419.51 -36.59 418.15 -38.69 Q416.80 -40.80 416.05 -43.50 Q415.30 -46.20 415.30 -49.70 Q415.30 -55.59 418.19 -60.19 Q421.10 -64.80 426.24 -67.44 Q431.40 -70.09 438.10 -70.09 Q442.60 -70.09 445.94 -69.30 Q449.30 -68.50 451.60 -67.39 Q453.90 -66.30 455.24 -65.25 Q456.60 -64.20 457.10 -63.59 Q459.90 -61.00 460.19 -59.14 Q460.51 -57.30 458.10 -54.00 Q455.60 -50.50 453.15 -50.09 Q450.69 -49.70 447.60 -51.80 Q446.40 -52.91 445.19 -53.80 Q444.01 -54.70 442.35 -55.25 Q440.69 -55.80 438.01 -55.80 Q436.40 -55.80 434.99 -55.34 Q433.60 -54.91 432.60 -54.09 Q431.60 -53.30 430.99 -52.14 Q430.40 -51.00 430.40 -49.59 Q430.40 -47.30 431.94 -45.89 Q433.51 -44.50 436.05 -43.64 Q438.60 -42.80 441.74 -42.05 Q444.90 -41.30 448.19 -40.30 Q451.19 -39.30 453.99 -37.84 Q456.80 -36.41 458.99 -34.20 Q461.19 -32.00 462.54 -28.70 Q463.90 -25.41 463.90 -20.59 Q463.90 -14.59 461.60 -10.30 Q459.30 -6.00 455.49 -3.30 Q451.69 -0.59 447.29 0.66 Q442.90 1.91 438.69 1.91 Z M535.00 -9.70 Q536.20 -7.20 536.29 -5.45 Q536.40 -3.70 535.25 -2.34 Q534.11 -1.00 531.50 0.30 Q527.50 2.20 525.29 1.45 Q523.11 0.70 521.20 -3.30 L501.61 -44.30 L482.11 -3.30 Q480.11 0.59 477.95 1.34 Q475.79 2.09 471.79 0.20 Q469.20 -1.00 468.04 -2.34 Q466.90 -3.70 467.00 -5.55 Q467.11 -7.41 468.40 -9.91 L494.70 -64.59 Q495.70 -66.59 497.65 -67.80 Q499.61 -69.00 501.70 -69.00 Q503.20 -69.00 504.50 -68.45 Q505.79 -67.91 506.84 -66.91 Q507.90 -65.91 508.61 -64.50 L535.00 -9.70 Z M484.79 -15.41 L491.00 -28.30 L512.29 -28.30 L518.50 -15.41 L484.79 -15.41 Z M550.19 0.91 Q546.60 0.91 544.99 -0.14 Q543.40 -1.20 542.99 -3.00 Q542.60 -4.80 542.60 -6.70 L542.60 -61.41 Q542.60 -63.41 542.94 -65.09 Q543.30 -66.80 544.90 -67.89 Q546.51 -69.00 550.19 -69.00 Q554.01 -69.00 555.55 -67.89 Q557.10 -66.80 557.44 -65.09 Q557.80 -63.41 557.80 -61.41 L557.80 -12.30 L585.19 -12.30 Q586.90 -12.30 588.40 -12.00 Q589.90 -11.70 590.85 -10.30 Q591.80 -8.91 591.80 -5.70 Q591.80 -2.59 590.80 -1.14 Q589.80 0.30 588.35 0.59 Q586.90 0.91 585.19 0.91 L550.19 0.91 Z" fill="url(#topGrad)"/></g>
  <rect x="28" y="114.1" width="589.5" height="3.2" rx="1.6" fill="url(#ruleGrad)"/>
  <g transform="translate(25.25,220.39)"><path d="M31.57 1.55 Q27.05 1.55 22.05 -0.28 Q17.05 -2.10 12.65 -5.67 Q8.25 -9.25 5.50 -14.63 Q2.75 -20.02 2.75 -27.17 Q2.75 -34.20 5.50 -39.53 Q8.25 -44.88 12.60 -48.40 Q16.95 -51.92 21.95 -53.73 Q26.95 -55.55 31.35 -55.55 Q35.53 -55.55 38.60 -54.67 Q41.70 -53.80 43.67 -52.75 Q45.65 -51.70 46.53 -51.15 Q48.73 -49.83 50.65 -48.13 Q52.58 -46.42 52.58 -43.55 Q52.58 -42.13 52.03 -40.63 Q51.48 -39.15 50.27 -37.30 Q46.30 -31.25 42.35 -31.25 Q40.60 -31.25 39.27 -31.85 Q37.95 -32.45 36.85 -33.22 Q35.75 -34.00 34.48 -34.60 Q33.22 -35.20 31.35 -35.20 Q29.15 -35.20 27.28 -34.10 Q25.40 -33.00 24.30 -31.18 Q23.20 -29.37 23.20 -27.05 Q23.20 -24.75 24.30 -22.88 Q25.40 -21.00 27.23 -19.90 Q29.05 -18.80 31.13 -18.80 Q32.67 -18.80 33.70 -19.13 Q34.75 -19.47 35.30 -19.85 Q35.85 -20.25 35.97 -20.25 Q37.50 -21.12 38.88 -21.88 Q40.25 -22.65 41.70 -22.65 Q43.55 -22.65 45.53 -21.28 Q47.52 -19.90 49.95 -16.83 Q52.25 -13.97 52.53 -11.50 Q52.80 -9.02 51.25 -6.88 Q49.72 -4.73 46.53 -2.75 Q46.20 -2.53 44.28 -1.48 Q42.35 -0.45 39.15 0.55 Q35.97 1.55 31.57 1.55 Z M86.13 1.98 Q81.08 1.98 75.90 -0.05 Q70.73 -2.10 66.38 -5.88 Q62.03 -9.68 59.45 -15.00 Q56.88 -20.35 56.88 -26.95 Q56.88 -33.00 59.18 -38.28 Q61.48 -43.55 65.50 -47.58 Q69.53 -51.60 74.75 -53.90 Q79.98 -56.20 85.91 -56.20 Q94.05 -56.20 100.65 -52.30 Q107.25 -48.40 111.21 -41.80 Q115.18 -35.20 115.18 -27.05 Q115.18 -20.13 112.53 -14.73 Q109.88 -9.35 105.59 -5.60 Q101.31 -1.87 96.18 0.05 Q91.08 1.98 86.13 1.98 Z M85.91 -18.15 Q87.56 -18.15 89.70 -18.98 Q91.85 -19.80 93.43 -21.78 Q95.03 -23.75 95.03 -27.17 Q95.03 -29.92 93.88 -31.90 Q92.73 -33.88 90.63 -34.98 Q88.55 -36.08 85.80 -36.08 Q83.38 -36.08 81.40 -34.93 Q79.43 -33.77 78.21 -31.73 Q77.00 -29.70 77.00 -27.05 Q77.00 -23.75 78.53 -21.78 Q80.08 -19.80 82.16 -18.98 Q84.26 -18.15 85.91 -18.15 Z M143.33 1.00 Q138.26 1.00 134.46 0.55 Q130.68 0.10 128.04 -1.20 Q125.41 -2.53 123.76 -5.00 Q122.11 -7.48 121.33 -11.48 Q120.56 -15.50 120.56 -21.55 L120.56 -70.30 Q120.56 -72.82 120.99 -75.08 Q121.44 -77.33 123.52 -78.80 Q125.61 -80.30 130.56 -80.30 Q135.51 -80.30 137.54 -78.80 Q139.59 -77.33 140.02 -75.01 Q140.46 -72.70 140.46 -70.18 L140.46 -22.77 Q140.46 -21.12 140.51 -20.18 Q140.58 -19.25 140.86 -18.80 Q141.13 -18.37 141.73 -18.30 Q142.34 -18.25 143.44 -18.25 Q144.86 -18.25 146.46 -17.88 Q148.06 -17.50 149.21 -15.57 Q150.36 -13.65 150.36 -8.90 Q150.36 -3.95 149.21 -1.86 Q148.06 0.22 146.41 0.60 Q144.76 1.00 143.33 1.00 Z M177.54 1.00 Q172.47 1.00 168.67 0.55 Q164.89 0.10 162.25 -1.20 Q159.62 -2.53 157.97 -5.00 Q156.32 -7.48 155.54 -11.48 Q154.77 -15.50 154.77 -21.55 L154.77 -70.30 Q154.77 -72.82 155.20 -75.08 Q155.65 -77.33 157.73 -78.80 Q159.82 -80.30 164.77 -80.30 Q169.72 -80.30 171.75 -78.80 Q173.80 -77.33 174.23 -75.01 Q174.67 -72.70 174.67 -70.18 L174.67 -22.77 Q174.67 -21.12 174.72 -20.18 Q174.79 -19.25 175.07 -18.80 Q175.34 -18.37 175.94 -18.30 Q176.55 -18.25 177.65 -18.25 Q179.07 -18.25 180.67 -17.88 Q182.27 -17.50 183.42 -15.57 Q184.57 -13.65 184.57 -8.90 Q184.57 -3.95 183.42 -1.86 Q182.27 0.22 180.62 0.60 Q178.97 1.00 177.54 1.00 Z M216.81 2.20 Q208.56 2.20 202.83 -0.50 Q197.13 -3.20 193.60 -7.53 Q190.08 -11.88 188.43 -16.93 Q186.78 -22.00 186.78 -26.73 Q186.78 -35.42 190.63 -42.02 Q194.48 -48.62 201.30 -52.35 Q208.13 -56.10 216.93 -56.10 Q223.73 -56.10 228.58 -53.90 Q233.43 -51.70 236.45 -48.28 Q239.48 -44.88 240.90 -41.03 Q242.33 -37.18 242.33 -33.88 Q242.33 -27.60 239.25 -24.30 Q236.18 -21.00 231.33 -21.00 L207.90 -21.00 Q208.33 -19.25 209.71 -17.98 Q211.08 -16.72 213.18 -16.00 Q215.28 -15.30 217.68 -15.30 Q220.11 -15.30 221.98 -15.57 Q223.85 -15.85 225.23 -16.28 Q226.60 -16.72 227.75 -17.15 Q228.91 -17.60 229.83 -17.88 Q230.78 -18.15 231.66 -18.15 Q233.63 -18.15 235.28 -16.83 Q236.93 -15.50 238.26 -12.87 Q239.03 -11.45 239.36 -10.18 Q239.68 -8.90 239.68 -7.80 Q239.68 -4.50 236.98 -2.30 Q234.30 -0.10 229.23 1.05 Q224.18 2.20 216.81 2.20 Z M207.90 -31.35 L220.23 -31.35 Q221.76 -31.35 222.46 -32.00 Q223.18 -32.67 223.18 -34.00 Q223.18 -35.42 222.36 -36.40 Q221.53 -37.40 220.11 -37.90 Q218.68 -38.40 216.70 -38.40 Q214.06 -38.40 212.08 -37.35 Q210.10 -36.30 209.05 -34.70 Q208.01 -33.10 207.90 -31.35 Z M275.55 1.55 Q271.03 1.55 266.03 -0.28 Q261.03 -2.10 256.63 -5.67 Q252.23 -9.25 249.48 -14.63 Q246.73 -20.02 246.73 -27.17 Q246.73 -34.20 249.48 -39.53 Q252.23 -44.88 256.58 -48.40 Q260.93 -51.92 265.93 -53.73 Q270.93 -55.55 275.33 -55.55 Q279.51 -55.55 282.58 -54.67 Q285.68 -53.80 287.65 -52.75 Q289.63 -51.70 290.51 -51.15 Q292.71 -49.83 294.63 -48.13 Q296.56 -46.42 296.56 -43.55 Q296.56 -42.13 296.01 -40.63 Q295.46 -39.15 294.25 -37.30 Q290.28 -31.25 286.33 -31.25 Q284.58 -31.25 283.25 -31.85 Q281.93 -32.45 280.83 -33.22 Q279.73 -34.00 278.46 -34.60 Q277.20 -35.20 275.33 -35.20 Q273.13 -35.20 271.26 -34.10 Q269.38 -33.00 268.28 -31.18 Q267.18 -29.37 267.18 -27.05 Q267.18 -24.75 268.28 -22.88 Q269.38 -21.00 271.20 -19.90 Q273.03 -18.80 275.11 -18.80 Q276.65 -18.80 277.68 -19.13 Q278.73 -19.47 279.28 -19.85 Q279.83 -20.25 279.95 -20.25 Q281.48 -21.12 282.86 -21.88 Q284.23 -22.65 285.68 -22.65 Q287.53 -22.65 289.51 -21.28 Q291.50 -19.90 293.93 -16.83 Q296.23 -13.97 296.50 -11.50 Q296.78 -9.02 295.23 -6.88 Q293.70 -4.73 290.51 -2.75 Q290.18 -2.53 288.25 -1.48 Q286.33 -0.45 283.13 0.55 Q279.95 1.55 275.55 1.55 Z M332.53 1.00 Q326.71 1.00 322.41 -0.33 Q318.11 -1.65 315.31 -4.40 Q312.51 -7.15 311.13 -11.33 Q309.76 -15.50 309.76 -21.12 L309.76 -63.80 Q309.76 -66.33 310.19 -68.48 Q310.64 -70.62 312.72 -72.00 Q314.81 -73.37 319.76 -73.37 Q324.61 -73.37 326.69 -71.88 Q328.79 -70.40 329.22 -68.08 Q329.66 -65.78 329.66 -63.35 L329.66 -22.10 Q329.66 -20.90 329.83 -20.08 Q330.01 -19.25 330.33 -18.80 Q330.66 -18.37 331.21 -18.15 Q331.76 -17.93 332.64 -17.93 Q335.51 -17.93 337.76 -17.48 Q340.01 -17.05 341.26 -15.18 Q342.54 -13.30 342.54 -8.90 Q342.54 -3.95 340.99 -1.86 Q339.46 0.22 337.14 0.60 Q334.84 1.00 332.53 1.00 Z M307.46 -54.23 L320.31 -54.23 L335.51 -54.78 Q337.91 -54.78 340.16 -54.33 Q342.43 -53.90 343.91 -51.80 Q345.41 -49.72 345.41 -44.65 Q345.41 -40.05 343.91 -37.95 Q342.43 -35.85 340.16 -35.30 Q337.91 -34.75 335.39 -34.75 L321.41 -35.10 L307.01 -35.10 Q303.26 -35.30 301.84 -37.50 Q300.41 -39.70 300.41 -44.77 Q300.41 -49.50 302.16 -51.85 Q303.93 -54.23 307.46 -54.23 Z M360.25 1.00 Q355.30 1.00 353.20 -0.48 Q351.12 -1.98 350.73 -4.28 Q350.35 -6.60 350.35 -9.02 L350.35 -44.88 Q350.35 -47.30 350.78 -49.55 Q351.23 -51.80 353.31 -53.28 Q355.40 -54.78 360.35 -54.78 Q365.30 -54.78 367.33 -53.28 Q369.38 -51.80 369.81 -49.50 Q370.25 -47.20 370.25 -44.65 L370.25 -8.90 Q370.25 -6.50 369.81 -4.18 Q369.38 -1.87 367.33 -0.43 Q365.30 1.00 360.25 1.00 Z M360.25 -60.17 Q355.30 -60.17 353.20 -61.65 Q351.12 -63.15 350.73 -65.45 Q350.35 -67.75 350.35 -70.18 Q350.35 -72.70 350.78 -74.95 Q351.23 -77.22 353.31 -78.65 Q355.40 -80.08 360.35 -80.08 Q365.30 -80.08 367.33 -78.58 Q369.38 -77.10 369.81 -74.80 Q370.25 -72.50 370.25 -70.07 Q370.25 -67.65 369.81 -65.33 Q369.38 -63.03 367.33 -61.60 Q365.30 -60.17 360.25 -60.17 Z M405.79 1.55 Q402.71 1.55 400.46 0.33 Q398.21 -0.88 396.99 -3.30 L377.51 -40.37 Q375.11 -45.10 375.98 -48.28 Q376.86 -51.48 381.91 -53.90 Q387.09 -56.43 390.06 -55.65 Q393.03 -54.90 395.46 -49.40 L405.79 -25.85 L416.13 -49.40 Q418.66 -55.10 421.63 -55.76 Q424.61 -56.43 429.66 -53.90 Q434.83 -51.37 435.59 -48.13 Q436.36 -44.88 434.06 -40.37 L414.59 -3.30 Q413.38 -0.88 411.18 0.33 Q408.98 1.55 405.79 1.55 Z M469.26 2.20 Q461.01 2.20 455.28 -0.50 Q449.58 -3.20 446.05 -7.53 Q442.53 -11.88 440.88 -16.93 Q439.23 -22.00 439.23 -26.73 Q439.23 -35.42 443.08 -42.02 Q446.93 -48.62 453.75 -52.35 Q460.58 -56.10 469.38 -56.10 Q476.18 -56.10 481.03 -53.90 Q485.88 -51.70 488.90 -48.28 Q491.93 -44.88 493.35 -41.03 Q494.78 -37.18 494.78 -33.88 Q494.78 -27.60 491.70 -24.30 Q488.63 -21.00 483.78 -21.00 L460.35 -21.00 Q460.78 -19.25 462.16 -17.98 Q463.53 -16.72 465.63 -16.00 Q467.73 -15.30 470.13 -15.30 Q472.56 -15.30 474.43 -15.57 Q476.30 -15.85 477.68 -16.28 Q479.05 -16.72 480.20 -17.15 Q481.36 -17.60 482.28 -17.88 Q483.23 -18.15 484.11 -18.15 Q486.08 -18.15 487.73 -16.83 Q489.38 -15.50 490.71 -12.87 Q491.48 -11.45 491.81 -10.18 Q492.13 -8.90 492.13 -7.80 Q492.13 -4.50 489.43 -2.30 Q486.75 -0.10 481.68 1.05 Q476.63 2.20 469.26 2.20 Z M460.35 -31.35 L472.68 -31.35 Q474.21 -31.35 474.91 -32.00 Q475.63 -32.67 475.63 -34.00 Q475.63 -35.42 474.81 -36.40 Q473.98 -37.40 472.56 -37.90 Q471.13 -38.40 469.15 -38.40 Q466.51 -38.40 464.53 -37.35 Q462.55 -36.30 461.50 -34.70 Q460.46 -33.10 460.35 -31.35 Z" fill="url(#botGrad)"/></g>
</svg>